# xmcd
#
# Track frame offsets: 
#        150
#        16228
#        33591
#        49417
#        67191
#        82089
#        101593
#        123139
#        139654
#        160798
#        173778
#        199794
#        217623
#        234062
#
# Disc length: 3405 seconds
#
# Revision: 0
# Processed by: cddbd v1.5.2PL0 Copyright (c) Steve Scherf et al.
# Submitted via: ExactAudioCopy v0.95b4
#
DISCID=b50d4b0e
DTITLE=Bobby Rush - Raw
DYEAR=1900
DGENRE=Blues
TTITLE0=Boney Maroney
TTITLE1=School Girl
TTITLE2=Glad To Get You Back
TTITLE3=Howlin' Wolf
TTITLE4=Knockin' At Your Door
TTITLE5=What's Going On
TTITLE6=9 Below Zero
TTITLE7=What's The Use
TTITLE8=You Don't Love Me
TTITLE9=I'm Tired
TTITLE10=How Long
TTITLE11=Uncle Esau
TTITLE12=I Got 3 Problems
TTITLE13=Bobby Rush For President
EXTD=
EXTT0=
EXTT1=
EXTT2=
EXTT3=
EXTT4=
EXTT5=
EXTT6=
EXTT7=
EXTT8=
EXTT9=
EXTT10=
EXTT11=
EXTT12=
EXTT13=
PLAYORDER=
